<svg xmlns="http://www.w3.org/2000/svg" viewBox="0 0 256 256" role="img" aria-label="TinyTidy logo">
	<g
		fill="none"
		stroke="#2d4eb6"
		stroke-width="14"
		stroke-linecap="round"
		stroke-linejoin="round"
	>
		<path d="M44 94 128 32l84 62" />
		<path d="M54 105v94a22 22 0 0 0 22 22h104a22 22 0 0 0 22-22v-94" />
		<path d="M128 34v70" />
		<path d="M98 148c0-24 14-44 30-44s30 20 30 44v38H98z" />
		<path d="M98 164h60" />
		<path d="m113 165-5 21" />
		<path d="m128 164 1 23" />
		<path d="m143 165 5 21" />
		<path d="M104 48C90 35 82 29 70 26c9 13 15 22 30 30" />
		<path d="M152 48c14-13 22-19 34-22-9 13-15 22-30 30" />
	</g>
</svg>
